# xmcd
#
# Track frame offsets: 
#        150
#        20468
#        51021
#        63328
#        79326
#        91737
#        106742
#        139695
#        157629
#        184777
#        220559
#        241263
#
# Disc length: 3532 seconds
#
# Revision: 0
# Processed by: cddbd v1.5.2PL0 Copyright (c) Steve Scherf et al.
# Submitted via: ExactAudioCopy v1.3
#
DISCID=890dca0c
DTITLE=Gerry Joe Weise - Blues Down Under
DYEAR=2009
DGENRE=Blues Rock, Chicago Blues
TTITLE0=Blues Down Under
TTITLE1=A Long Gone Train
TTITLE2=Earth Spirit
TTITLE3=B Good 2 Me Jam
TTITLE4=Boogie Ya Na Ho
TTITLE5=Dreamtime Shuffle
TTITLE6=Blue Outback
TTITLE7=Cadillac Jazz
TTITLE8=Magnificent
TTITLE9=Blues For Gandhi
TTITLE10=Midnight Freestyle
TTITLE11=Easter Island
EXTD=
EXTT0=
EXTT1=
EXTT2=
EXTT3=
EXTT4=
EXTT5=
EXTT6=
EXTT7=
EXTT8=
EXTT9=
EXTT10=
EXTT11=
PLAYORDER=
